<?xml version="1.0" encoding="iso-8859-1"?>
<!-- Generator: Adobe Illustrator 19.0.0, SVG Export Plug-In . SVG Version: 6.00 Build 0)  -->
<svg version="1.1" id="Layer_1" xmlns="http://www.w3.org/2000/svg" xmlns:xlink="http://www.w3.org/1999/xlink" x="0px" y="0px"
	 viewBox="0 0 512 512" style="enable-background:new 0 0 512 512;" xml:space="preserve">
<rect x="243.937" y="284.147" style="fill:#58575D;" width="246.618" height="53.613"/>
<polygon style="fill:#ECB45C;" points="243.937,337.759 286.827,294.869 436.942,294.869 479.832,337.759 501.277,337.759 
	501.277,155.476 211.77,155.476 211.77,337.759 "/>
<polygon style="fill:#E9A440;" points="265.382,155.476 265.382,316.314 286.827,294.869 436.942,294.869 479.832,337.759 
	501.277,337.759 501.277,155.476 "/>
<rect x="29.487" y="284.147" style="fill:#797781;" width="182.283" height="53.613"/>
<rect x="168.88" y="262.702" style="fill:#58575D;" width="42.89" height="32.168"/>
<g>
	<rect x="125.99" y="230.534" style="fill:#88888F;" width="53.613" height="64.335"/>
	<circle style="fill:#88888F;" cx="88.461" cy="343.12" r="48.251"/>
</g>
<path style="fill:#EDEDED;" d="M88.461,356.524c-7.391,0-13.403-6.012-13.403-13.403s6.012-13.403,13.403-13.403
	c7.391,0,13.403,6.012,13.403,13.403S95.852,356.524,88.461,356.524z"/>
<circle style="fill:#797781;" cx="313.634" cy="343.12" r="48.251"/>
<path style="fill:#DBDBDB;" d="M313.634,356.524c-7.391,0-13.403-6.012-13.403-13.403s6.012-13.403,13.403-13.403
	c7.391,0,13.403,6.012,13.403,13.403S321.025,356.524,313.634,356.524z"/>
<circle style="fill:#797781;" cx="410.136" cy="343.12" r="48.251"/>
<path style="fill:#DBDBDB;" d="M410.136,356.524c-7.391,0-13.403-6.012-13.403-13.403s6.012-13.403,13.403-13.403
	c7.391,0,13.403,6.012,13.403,13.403S417.527,356.524,410.136,356.524z"/>
<path style="fill:#88888F;" d="M458.387,399.414H40.209c-4.441,0-8.042-3.601-8.042-8.042s3.601-8.042,8.042-8.042h418.178
	c4.441,0,8.042,3.601,8.042,8.042S462.829,399.414,458.387,399.414z"/>
<rect x="201.047" y="123.309" style="fill:#EFC27B;" width="310.953" height="42.89"/>
<rect x="265.382" y="123.309" style="fill:#ECB45C;" width="246.618" height="42.89"/>
<g>
	<path style="fill:#797781;" d="M450.346,270.743c-4.441,0-8.042-3.601-8.042-8.042v-64.335c0-4.441,3.601-8.042,8.042-8.042
		s8.042,3.601,8.042,8.042v64.335C458.387,267.143,454.787,270.743,450.346,270.743z"/>
	<path style="fill:#797781;" d="M406.115,270.743c-4.441,0-8.042-3.601-8.042-8.042v-64.335c0-4.441,3.601-8.042,8.042-8.042
		c4.441,0,8.042,3.601,8.042,8.042v64.335C414.157,267.143,410.556,270.743,406.115,270.743z"/>
	<path style="fill:#797781;" d="M361.885,270.743c-4.441,0-8.042-3.601-8.042-8.042v-64.335c0-4.441,3.601-8.042,8.042-8.042
		c4.441,0,8.042,3.601,8.042,8.042v64.335C369.927,267.143,366.326,270.743,361.885,270.743z"/>
	<path style="fill:#797781;" d="M317.654,270.743c-4.441,0-8.042-3.601-8.042-8.042v-64.335c0-4.441,3.601-8.042,8.042-8.042
		s8.042,3.601,8.042,8.042v64.335C325.696,267.143,322.096,270.743,317.654,270.743z"/>
	<path style="fill:#797781;" d="M273.424,270.743c-4.441,0-8.042-3.601-8.042-8.042v-64.335c0-4.441,3.601-8.042,8.042-8.042
		c4.441,0,8.042,3.601,8.042,8.042v64.335C281.466,267.143,277.865,270.743,273.424,270.743z"/>
	<path style="fill:#797781;" d="M458.387,383.33H265.382v16.084h193.005c4.441,0,8.042-3.601,8.042-8.042
		S462.829,383.33,458.387,383.33z"/>
</g>
<polygon style="fill:#EFC27B;" points="93.821,112.587 8.043,198.365 8.042,337.759 29.487,337.759 61.654,294.869 136.712,294.869 
	136.712,112.587 "/>
<polygon style="fill:#D1E5F5;" points="93.822,112.586 61.654,112.586 8.043,166.198 8.043,198.367 93.822,198.367 "/>
<path style="fill:#88888F;" d="M93.822,238.576H61.654c-4.441,0-8.042-3.601-8.042-8.042c0-4.441,3.601-8.042,8.042-8.042h32.168
	c4.441,0,8.042,3.601,8.042,8.042C101.864,234.975,98.263,238.576,93.822,238.576z"/>
<polygon style="fill:#B4D8F1;" points="8.043,198.367 93.822,198.367 93.822,112.586 8.043,198.365 "/>
<path style="fill:#88888F;" d="M75.058,302.911H8.042c-4.441,0-8.042-3.601-8.042-8.042s3.601-8.042,8.042-8.042h67.016
	c4.441,0,8.042,3.601,8.042,8.042S79.499,302.911,75.058,302.911z"/>
<g>
</g>
<g>
</g>
<g>
</g>
<g>
</g>
<g>
</g>
<g>
</g>
<g>
</g>
<g>
</g>
<g>
</g>
<g>
</g>
<g>
</g>
<g>
</g>
<g>
</g>
<g>
</g>
<g>
</g>
</svg>
